<mxfile host="65bd71144e">
    <diagram id="aKyX4ltNA0vQe96N1jLO" name="Page-1">
        <mxGraphModel dx="640" dy="540" grid="1" gridSize="10" guides="1" tooltips="1" connect="1" arrows="1" fold="1" page="1" pageScale="1" pageWidth="850" pageHeight="1100" math="0" shadow="0">
            <root>
                <mxCell id="0"/>
                <mxCell id="1" parent="0"/>
                <mxCell id="2" value="Construcción" style="rounded=0;whiteSpace=wrap;html=1;fillColor=none;fontColor=#006EAF;strokeColor=#006EAF;" vertex="1" parent="1">
                    <mxGeometry x="160" y="200" width="340" height="40" as="geometry"/>
                </mxCell>
                <mxCell id="3" value="Inicio o &lt;i&gt;inception&lt;/i&gt;" style="rounded=0;whiteSpace=wrap;html=1;fillColor=none;fontColor=#006EAF;strokeColor=#006EAF;" vertex="1" parent="1">
                    <mxGeometry x="40" y="200" width="120" height="40" as="geometry"/>
                </mxCell>
                <mxCell id="4" value="Transición" style="rounded=0;whiteSpace=wrap;html=1;fillColor=none;fontColor=#006EAF;strokeColor=#006EAF;" vertex="1" parent="1">
                    <mxGeometry x="500" y="200" width="115" height="40" as="geometry"/>
                </mxCell>
                <mxCell id="5" value="" style="ellipse;shape=umlControl;whiteSpace=wrap;html=1;rotation=-180;flipV=0;flipH=1;fillColor=none;fontColor=#006EAF;strokeColor=#006EAF;" vertex="1" parent="1">
                    <mxGeometry x="160" y="110" width="70" height="80" as="geometry"/>
                </mxCell>
                <mxCell id="6" value="" style="ellipse;shape=umlControl;whiteSpace=wrap;html=1;rotation=-180;flipV=0;flipH=1;fillColor=none;fontColor=#006EAF;strokeColor=#006EAF;" vertex="1" parent="1">
                    <mxGeometry x="65" y="110" width="70" height="80" as="geometry"/>
                </mxCell>
                <mxCell id="7" value="" style="ellipse;shape=umlControl;whiteSpace=wrap;html=1;rotation=-180;flipV=0;flipH=1;fillColor=none;fontColor=#006EAF;strokeColor=#006EAF;" vertex="1" parent="1">
                    <mxGeometry x="250" y="110" width="70" height="80" as="geometry"/>
                </mxCell>
                <mxCell id="8" value="" style="ellipse;shape=umlControl;whiteSpace=wrap;html=1;rotation=-180;flipV=0;flipH=1;fillColor=none;fontColor=#006EAF;strokeColor=#006EAF;" vertex="1" parent="1">
                    <mxGeometry x="340" y="110" width="70" height="80" as="geometry"/>
                </mxCell>
                <mxCell id="9" value="" style="ellipse;shape=umlControl;whiteSpace=wrap;html=1;rotation=-180;flipV=0;flipH=1;fillColor=none;fontColor=#006EAF;strokeColor=#006EAF;" vertex="1" parent="1">
                    <mxGeometry x="425" y="110" width="70" height="80" as="geometry"/>
                </mxCell>
                <mxCell id="10" value="" style="ellipse;shape=umlControl;whiteSpace=wrap;html=1;rotation=-180;flipV=0;flipH=1;fillColor=none;fontColor=#006EAF;strokeColor=#006EAF;" vertex="1" parent="1">
                    <mxGeometry x="520" y="110" width="70" height="80" as="geometry"/>
                </mxCell>
                <mxCell id="11" value="Imaginar y planificar" style="text;html=1;align=center;verticalAlign=middle;resizable=0;points=[];autosize=1;strokeColor=none;fillColor=none;fontColor=#006EAF;" vertex="1" parent="1">
                    <mxGeometry x="35" y="250" width="130" height="30" as="geometry"/>
                </mxCell>
                <mxCell id="12" value="Construir de forma incremental una solución consumible" style="text;html=1;align=center;verticalAlign=middle;resizable=0;points=[];autosize=1;strokeColor=none;fillColor=none;fontColor=#006EAF;" vertex="1" parent="1">
                    <mxGeometry x="170" y="250" width="320" height="30" as="geometry"/>
                </mxCell>
                <mxCell id="13" value="Liberar la solución" style="text;html=1;align=center;verticalAlign=middle;resizable=0;points=[];autosize=1;strokeColor=none;fillColor=none;fontColor=#006EAF;" vertex="1" parent="1">
                    <mxGeometry x="495" y="250" width="120" height="30" as="geometry"/>
                </mxCell>
                <mxCell id="14" value="" style="endArrow=open;endFill=0;html=1;edgeStyle=orthogonalEdgeStyle;align=left;verticalAlign=top;fontColor=#006EAF;fillColor=#1ba1e2;strokeColor=#006EAF;" edge="1" parent="1">
                    <mxGeometry x="-1" relative="1" as="geometry">
                        <mxPoint x="554" y="90" as="sourcePoint"/>
                        <mxPoint x="99" y="90" as="targetPoint"/>
                        <Array as="points">
                            <mxPoint x="554" y="70"/>
                            <mxPoint x="99" y="70"/>
                        </Array>
                    </mxGeometry>
                </mxCell>
                <mxCell id="17" value="Próxima liberación" style="text;html=1;align=center;verticalAlign=middle;resizable=0;points=[];autosize=1;strokeColor=none;fillColor=none;fontColor=#006EAF;" vertex="1" parent="1">
                    <mxGeometry x="260" y="40" width="120" height="30" as="geometry"/>
                </mxCell>
            </root>
        </mxGraphModel>
    </diagram>
</mxfile>